#!OML:ASF \\sashay\E\basketball\basketball\Project 1\Capture day 1\Session 1\Subject.ASF
:FULLY-SPECIFIED
:DEGREES
115
root 4.76875 13.8919 4.77896 193.294 -23.566 -186.643
lowerback 38.1385 0.943599 -1.61006
upperback 14.2556 -3.68208 -2.72267
thorax -3.0196 -3.30838 -0.670817
lowerneck -8.49591 8.41089 -12.5974
upperneck -26.612 9.85379 0.606054
head -7.66707 4.73536 2.00364
rclavicle 6.40087e-014 -1.0138e-014
rhumerus 6.09067 -24.4178 -71.4182
rradius 57.4851
rwrist -41.0694
rhand -30.5334 33.9845
rfingers 7.12502
rthumb -3.8326 4.03918
lclavicle 6.40087e-014 -1.0138e-014
lhumerus -19.6696 32.2352 55.6713
lradius 77.9099
lwrist 54.8769
lhand -22.0607 20.3797
lfingers 7.12502
lthumb 4.35016 50.3151
rfemur -59.0549 -21.1067 21.2464
rtibia 71.923
rfoot -9.86382 -21.5916
rtoes -55.6707
lfemur -46.6208 33.7533 -19.2191
ltibia 87.7041
lfoot -17.2046 7.17332
ltoes -1.79314
116
root 4.42884 13.822 4.62188 192.894 -24.1088 -186.33
lowerback 38.3661 0.907847 -0.927483
upperback 14.2735 -3.48194 -2.7304
thorax -3.09659 -3.18058 -1.09325
lowerneck -8.80236 8.13842 -13.1306
upperneck -27.0959 9.45928 0.753338
head -7.80306 4.56278 2.17188
rclavicle -4.81059e-014 7.35503e-015
rhumerus 6.695 -23.6148 -71.5951
rradius 57.2087
rwrist -41.5579
rhand -30.8217 34.0287
rfingers 7.12502
rthumb -4.11096 4.08862
lclavicle -4.81059e-014 7.35503e-015
lhumerus -19.6836 31.1997 56.8095
lradius 78.6656
lwrist 54.2996
lhand -21.4308 20.5179
lfingers 7.12502
lthumb 4.95835 50.4399
rfemur -57.2305 -20.354 19.4785
rtibia 72.4169
rfoot -4.01932 -24.5103
rtoes -56.6046
lfemur -49.6564 35.029 -18.7915
ltibia 86.5145
lfoot -17.0695 7.23282
ltoes -0.991046
117
root 4.07925 13.7491 4.46334 192.362 -24.7045 -185.976
lowerback 38.5823 0.796851 0.215635
upperback 14.3965 -3.25101 -3.01415
thorax -3.08075 -3.01677 -2.061
lowerneck -9.38731 7.8148 -12.9925
upperneck -27.2052 9.03176 0.821837
head -7.7076 4.32232 2.2238
rclavicle -5.96354e-015 -2.52457e-014
rhumerus 7.25804 -23.2658 -71.8984
rradius 56.6495
rwrist -41.9398
rhand -31.2525 33.8021
rfingers 7.12502
rthumb -4.52694 3.87051
lclavicle -5.96354e-015 -2.52457e-014
lhumerus -19.3667 29.6044 57.732
lradius 79.4559
lwrist 54.059
lhand -21.4564 20.3831
lfingers 7.12502
lthumb 4.9337 50.3056
rfemur -55.6994 -20.0322 17.5948
rtibia 73.5002
rfoot -3.55186 -25.8358
rtoes -56.4855
lfemur -52.3295 35.8169 -18.2633
ltibia 84.8271
lfoot -17.0612 6.63187
ltoes 5.51361
118
root 3.71281 13.6892 4.30132 191.709 -25.3773 -185.62
lowerback 38.8503 0.499978 1.5016
upperback 14.533 -3.21806 -3.45127
thorax -3.07965 -2.93836 -3.19571
lowerneck -9.79669 7.63559 -12.4519
upperneck -27.3482 8.7494 0.718997
head -7.63001 4.1279 2.13789
rclavicle 1.15295e-014 2.32578e-014
rhumerus 7.91731 -22.7651 -72.4049
rradius 55.7963
rwrist -41.9917
rhand -31.1209 33.3886
rfingers 7.12502
rthumb -4.39993 3.4543
lclavicle 1.15295e-014 2.32578e-014
lhumerus -19.324 28.0365 58.1607
lradius 80.3581
lwrist 54.2123
lhand -21.6631 20.5258
lfingers 7.12502
lthumb 4.73413 50.4529
rfemur -54.0623 -20.2091 15.5348
rtibia 74.7612
rfoot -8.90935 -25.5962
rtoes -56.3049
lfemur -54.4282 36.1379 -17.6306
ltibia 82.5018
lfoot -15.6761 6.68506
ltoes -4.93552
119
root 3.33106 13.63 4.13866 191.012 -25.8425 -185.118
lowerback 39.0866 0.650216 1.70293
upperback 14.6044 -2.94038 -2.84453
thorax -3.01753 -2.83265 -2.75702
lowerneck -10.439 7.49875 -13.2247
upperneck -27.3877 8.52078 0.368878
head -7.57007 4.09478 2.17571
rclavicle 2.0276e-014 -1.14301e-014
rhumerus 9.29401 -21.2113 -71.6942
rradius 54.636
rwrist -42.3125
rhand -30.4893 33.0023
rfingers 7.12502
rthumb -3.78995 3.05623
lclavicle 2.0276e-014 -1.14301e-014
lhumerus -19.9866 27.6747 59.8414
lradius 81.566
lwrist 54.3443
lhand -21.6743 20.8388
lfingers 7.12502
lthumb 4.72328 50.7661
rfemur -52.3446 -20.6647 13.6778
rtibia 75.869
rfoot -15.4913 -23.5206
rtoes -54.6564
lfemur -56.1346 36.2843 -16.7688
ltibia 79.7214
lfoot -14.9175 5.83096
ltoes -6.37341
120
root 2.93848 13.5917 3.97549 190.3 -26.1215 -184.491
lowerback 39.1267 0.714544 2.22899
upperback 14.7031 -2.67831 -2.64412
thorax -2.9002 -2.70126 -2.91577
lowerneck -10.6629 7.41697 -13.7031
upperneck -27.6642 8.41194 0.44069
head -7.66036 4.07118 2.28824
rclavicle 3.69739e-014 2.8128e-014
rhumerus 10.4669 -19.9018 -71.4615
rradius 53.4865
rwrist -43.0868
rhand -30.7558 33.0023
rfingers 7.12502
rthumb -4.04732 3.06101
lclavicle 3.69739e-014 2.8128e-014
lhumerus -20.5662 27.181 61.1049
lradius 82.8835
lwrist 54.5042
lhand -21.7026 21.5528
lfingers 7.12502
lthumb 4.69598 51.4808
rfemur -50.0217 -21.4083 12.1274
rtibia 76.1707
rfoot -18.0859 -23.1683
rtoes -54.3527
lfemur -57.2786 36.3825 -15.6838
ltibia 76.3024
lfoot -13.9945 4.56282
ltoes -7.46687
121
root 2.53068 13.5387 3.80864 189.668 -26.5046 -183.953
lowerback 39 0.687224 2.93131
upperback 14.7644 -2.45507 -2.75843
thorax -2.79279 -2.55305 -3.48717
lowerneck -10.006 7.39174 -14.2652
upperneck -28.4132 8.42395 1.11959
head -8.08998 4.09762 2.58464
rclavicle 1.33186e-014 -2.98177e-014
rhumerus 11.282 -19.0733 -71.6315
rradius 52.2075
rwrist -43.8006
rhand -31.4427 33.1397
rfingers 7.12502
rthumb -4.71059 3.21209
lclavicle 1.33186e-014 -2.98177e-014
lhumerus -21.0788 26.4003 62.0429
lradius 84.1214
lwrist 54.5559
lhand -21.7087 22.1292
lfingers 7.12502
lthumb 4.69005 52.0572
rfemur -47.3917 -22.2069 10.4515
rtibia 76.0196
rfoot -18.8576 -23.9082
rtoes -54.9307
lfemur -58.2194 36.4527 -14.7239
ltibia 72.487
lfoot -12.4834 3.09685
ltoes -12.1689
122
root 2.12208 13.5365 3.63701 189.262 -26.9671 -183.525
lowerback 38.6381 0.710964 3.40363
upperback 14.6763 -2.18017 -2.82764
thorax -2.76337 -2.36803 -3.91115
lowerneck -9.9854 7.20486 -13.1086
upperneck -28.0082 8.0917 0.727954
head -7.82983 3.86869 2.28685
rclavicle -1.88845e-014 2.50469e-014
rhumerus 11.7474 -18.5059 -71.8329
rradius 50.8244
rwrist -43.9688
rhand -31.6552 33.1667
rfingers 7.12502
rthumb -4.91576 3.24372
lclavicle -1.88845e-014 2.50469e-014
lhumerus -21.7881 25.4708 62.9498
lradius 85.1519
lwrist 54.4092
lhand -21.4648 22.001
lfingers 7.12502
lthumb 4.92556 51.9237
rfemur -44.5479 -23.0577 8.74247
rtibia 75.2343
rfoot -19.322 -24.3074
rtoes -55.2234
lfemur -58.4536 35.4927 -13.5602
ltibia 68.045
lfoot -10.6983 2.38843
ltoes -15.6925
123
root 1.70842 13.5386 3.45514 188.728 -27.1668 -183.311
lowerback 38.505 1.04843 3.38694
upperback 14.4632 -1.66852 -2.73875
thorax -2.91001 -2.09939 -3.98509
lowerneck -9.64246 7.0047 -12.7626
upperneck -27.4433 7.93975 1.0445
head -7.65803 3.78605 2.33184
rclavicle -2.08724e-014 -7.93151e-014
rhumerus 11.6434 -18.0764 -71.6978
rradius 49.6705
rwrist -43.9664
rhand -32.256 33.2694
rfingers 7.12502
rthumb -5.49593 3.36071
lclavicle -2.08724e-014 -7.93151e-014
lhumerus -22.7634 24.3133 64.0472
lradius 86.1145
lwrist 53.8485
lhand -21.1838 21.8995
lfingers 7.12502
lthumb 5.1969 51.8158
rfemur -41.3492 -23.5999 6.59989
rtibia 74.2377
rfoot -20.526 -23.958
rtoes -55.4126
lfemur -57.8559 34.6849 -12.2495
ltibia 63.4178
lfoot -8.56872 1.91584
ltoes -18.4585
124
root 1.28378 13.5248 3.2678 188.324 -27.1874 -183.343
lowerback 38.2316 1.57256 2.91387
upperback 14.176 -1.0561 -2.57024
thorax -3.087 -1.79624 -3.77265
lowerneck -9.30458 6.8665 -12.9086
upperneck -26.5469 8.01365 1.72547
head -7.4316 3.85277 2.56099
rclavicle -4.48838e-014 2.79153e-014
rhumerus 11.0818 -17.5804 -71.3229
rradius 48.7911
rwrist -43.8459
rhand -32.6297 33.4499
rfingers 7.12502
rthumb -5.85675 3.5508
lclavicle -4.48838e-014 2.79153e-014
lhumerus -23.9265 23.1653 65.2865
lradius 86.9491
lwrist 52.9909
lhand -21.1792 21.5942
lfingers 7.12502
lthumb 5.20134 51.5103
rfemur -38.1603 -24.0394 4.06916
rtibia 73.1113
rfoot -22.2319 -22.886
rtoes -55.8287
lfemur -56.8787 34.0416 -11.1556
ltibia 58.7293
lfoot -7.42748 1.809
ltoes -26.0375
125
root 0.848685 13.507 3.07312 187.982 -27.1819 -183.35
lowerback 37.7607 2.08447 2.43121
upperback 13.861 -0.445779 -2.50752
thorax -3.24071 -1.47956 -3.66738
lowerneck -8.68371 6.67173 -12.9717
upperneck -25.8235 7.99441 2.60992
head -7.30572 3.85008 2.84144
rclavicle -1.83876e-015 1.22253e-014
rhumerus 10.3486 -17.5426 -71.3037
rradius 47.9137
rwrist -42.9366
rhand -32.2246 33.688
rfingers 7.12502
rthumb -5.46555 3.77849
lclavicle -1.83876e-015 1.22253e-014
lhumerus -24.9121 21.9608 66.3352
lradius 87.3976
lwrist 52.0334
lhand -21.3369 20.7987
lfingers 7.12502
lthumb 5.04902 50.7185
rfemur -34.9245 -24.4094 1.48532
rtibia 71.8134
rfoot -24.0804 -21.2611
rtoes -56.0309
lfemur -55.9192 33.6842 -10.2501
ltibia 54.3501
lfoot -5.459 2.06811
ltoes -22.8994
126
root 0.410173 13.5127 2.8736 187.644 -27.3015 -183.321
lowerback 37.2105 2.53404 2.07384
upperback 13.5443 0.133526 -2.57825
thorax -3.37419 -1.16203 -3.75598
lowerneck -8.04907 6.33639 -12.6529
upperneck -25.0544 7.76925 3.56493
head -7.12892 3.70335 3.09522
rclavicle 3.48867e-014 -1.08387e-013
rhumerus 9.32831 -18.1472 -71.689
rradius 47.3425
rwrist -41.491
rhand -31.8951 33.642
rfingers 7.12502
rthumb -5.14744 3.72447
lclavicle 3.48867e-014 -1.08387e-013
lhumerus -25.6804 20.6474 67.0575
lradius 87.5555
lwrist 50.5952
lhand -21.2954 20.4305
lfingers 7.12502
lthumb 5.08911 50.3494
rfemur -31.4247 -24.55 -1.04518
rtibia 70.1942
rfoot -25.594 -19.3229
rtoes -55.875
lfemur -55.0657 33.3189 -9.43992
ltibia 50.0587
lfoot -4.67821 2.81431
ltoes -18.1285
127
root -0.0339236 13.5204 2.67192 187.241 -27.5271 -183.218
lowerback 36.4542 2.92877 1.79158
upperback 13.3935 0.657529 -2.6737
thorax -3.3994 -0.869685 -3.884
lowerneck -7.63309 5.99992 -11.9803
upperneck -24.1406 7.50211 4.29075
head -6.84219 3.51752 3.22096
rclavicle 1.37658e-014 -6.41081e-014
rhumerus 8.00324 -18.9719 -72.2237
rradius 47.3141
rwrist -40.1233
rhand -31.6274 33.6969
rfingers 7.12502
rthumb -4.88898 3.77335
lclavicle 1.37658e-014 -6.41081e-014
lhumerus -26.3262 19.4852 67.6144
lradius 87.5572
lwrist 48.6168
lhand -20.9268 20.4116
lfingers 7.12502
lthumb 5.44498 50.3216
rfemur -27.7455 -24.6078 -3.47271
rtibia 68.2977
rfoot -26.1633 -17.4096
rtoes -55.7157
lfemur -54.3657 33.6018 -9.5481
ltibia 46.4969
lfoot -4.75367 3.49038
ltoes -27.5396
128
root -0.498722 13.5232 2.46904 186.734 -27.8512 -182.986
lowerback 35.7094 3.28509 1.83003
upperback 13.1603 1.26248 -2.68351
thorax -3.35566 -0.52431 -4.11742
lowerneck -7.34735 5.51426 -11.5439
upperneck -22.942 7.08365 5.21082
head -6.44914 3.27836 3.45401
rclavicle -4.54223e-014 1.83379e-014
rhumerus 6.19776 -20.1679 -72.4667
rradius 47.6443
rwrist -38.9757
rhand -31.2925 34.5975
rfingers 7.12502
rthumb -4.56557 4.66668
lclavicle -4.54223e-014 1.83379e-014
lhumerus -26.7592 18.1018 68.4222
lradius 87.3892
lwrist 46.7404
lhand -20.7559 20.368
lfingers 7.12502
lthumb 5.61006 50.2737
rfemur -23.9074 -24.7159 -5.87338
rtibia 66.1755
rfoot -25.8529 -15.325
rtoes -55.6246
lfemur -53.1451 33.1354 -8.68022
ltibia 43.1582
lfoot -5.10199 4.63919
ltoes -16.8995
129
root -0.97767 13.5378 2.26528 186.182 -28.3669 -182.855
lowerback 34.9086 3.58 1.94549
upperback 13.0226 1.8045 -2.60791
thorax -3.18283 -0.212423 -4.27362
lowerneck -6.72973 5.04782 -12.5565
upperneck -21.9924 6.90924 7.55079
head -6.3147 3.18309 4.3762
rclavicle 5.76476e-015 2.05742e-014
rhumerus 4.18125 -21.4082 -72.3791
rradius 48.1322
rwrist -38.1198
rhand -31.0755 35.5741
rfingers 7.12502
rthumb -4.35603 5.63895
lclavicle 5.76476e-015 2.05742e-014
lhumerus -26.9191 16.8906 69.4629
lradius 86.971
lwrist 44.9178
lhand -20.6807 20.1004
lfingers 7.12502
lthumb 5.68262 50.0042
rfemur -19.8993 -23.8759 -8.25169
rtibia 63.8656
rfoot -24.4955 -13.6654
rtoes -55.6472
lfemur -52.2193 33.1876 -8.9951
ltibia 40.914
lfoot -4.68108 5.67601
ltoes -23.5596
